=============================
 Run: Sat May 30 06:32:38 UTC 2026
=============================
Generating Sinhala audio via Azure TTS...
  % Total    % Received % Xferd  Average Speed   Time    Time     Time  Current
                                 Dload  Upload   Total   Spent    Left  Speed
  0     0    0     0    0     0      0      0 --:--:-- --:--:-- --:--:--     0100  2035    0     0  100  2035      0   3982 --:--:-- --:--:-- --:--:--  3982100 10675    0  8640  100  2035   6180   1455  0:00:01  0:00:01 --:--:--  7635100  764k    0  762k  100  2035   298k    795  0:00:02  0:00:02 --:--:--  298k100 1419k    0 1417k  100  2035   408k    586  0:00:03  0:00:03 --:--:--  408k100 1655k    0 1653k  100  2035   421k    518  0:00:03  0:00:03 --:--:--  421k
Sinhala audio OK (HTTP 200)
Generating English audio via Azure TTS...
  % Total    % Received % Xferd  Average Speed   Time    Time     Time  Current
                                 Dload  Upload   Total   Spent    Left  Speed
  0     0    0     0    0     0      0      0 --:--:-- --:--:-- --:--:--     0100  1074    0     0  100  1074      0   2174 --:--:-- --:--:-- --:--:--  2174100  532k    0  531k  100  1074   340k    689  0:00:01  0:00:01 --:--:--  341k100 1707k    0 1706k  100  1074   979k    616  0:00:01  0:00:01 --:--:--  979k
English audio OK (HTTP 200)
Creating Sinhala video...
ffmpeg version 8.1.1 Copyright (c) 2000-2026 the FFmpeg developers
  built with Apple clang version 17.0.0 (clang-1700.6.4.2)
  configuration: --prefix=/opt/homebrew/Cellar/ffmpeg/8.1.1 --enable-shared --enable-pthreads --enable-version3 --cc=clang --host-cflags= --host-ldflags= --enable-ffplay --enable-gpl --enable-libsvtav1 --enable-libopus --enable-libx264 --enable-libmp3lame --enable-libdav1d --enable-libvmaf --enable-libvpx --enable-libx265 --enable-openssl --enable-videotoolbox --enable-audiotoolbox --enable-neon
  libavutil      60. 26.101 / 60. 26.101
  libavcodec     62. 28.101 / 62. 28.101
  libavformat    62. 12.101 / 62. 12.101
  libavdevice    62.  3.101 / 62.  3.101
  libavfilter    11. 14.101 / 11. 14.101
  libswscale      9.  5.101 /  9.  5.101
  libswresample   6.  3.101 /  6.  3.101
Input #0, image2, from 'poster.jpg':
  Duration: 00:00:00.04, start: 0.000000, bitrate: 43548 kb/s
  Stream #0:0: Video: mjpeg (Progressive), yuvj420p(pc, bt470bg/unknown/unknown), 842x1191 [SAR 1:1 DAR 842:1191], 25 fps, 25 tbr, 25 tbn
[in#1/mp3 @ 0x154607150] Estimating duration from bitrate, this may be inaccurate
Input #1, mp3, from 'sinhala.mp3':
  Duration: 00:01:10.56, start: 0.000000, bitrate: 192 kb/s
  Stream #1:0: Audio: mp3 (mp3float), 48000 Hz, mono, fltp, 192 kb/s
Stream mapping:
  Stream #0:0 -> #0:0 (mjpeg (native) -> h264 (libx264))
  Stream #1:0 -> #0:1 (mp3 (mp3float) -> aac (native))
Press [q] to stop, [?] for help
[swscaler @ 0x138020000] deprecated pixel format used, make sure you did set range correctly
[libx264 @ 0x1546104c0] using SAR=1190/1191
[libx264 @ 0x1546104c0] using cpu capabilities: ARMv8 NEON DotProd
[libx264 @ 0x1546104c0] profile High, level 3.2, 4:2:0, 8-bit
[libx264 @ 0x1546104c0] 264 - core 165 r3222 b35605a - H.264/MPEG-4 AVC codec - Copyleft 2003-2025 - http://www.videolan.org/x264.html - options: cabac=1 ref=3 deblock=1:-3:-3 analyse=0x3:0x113 me=hex subme=7 psy=1 psy_rd=2.00:0.70 mixed_ref=1 me_range=16 chroma_me=1 trellis=1 8x8dct=1 cqm=0 deadzone=21,11 fast_pskip=1 chroma_qp_offset=-4 threads=4 lookahead_threads=1 sliced_threads=0 nr=0 decimate=1 interlaced=0 bluray_compat=0 constrained_intra=0 bframes=3 b_pyramid=2 b_adapt=1 b_bias=0 direct=1 weightb=1 open_gop=0 weightp=2 keyint=250 keyint_min=25 scenecut=40 intra_refresh=0 rc_lookahead=40 rc=crf mbtree=1 crf=23.0 qcomp=0.60 qpmin=0 qpmax=69 qpstep=4 ip_ratio=1.40 aq=1:1.20
Output #0, mp4, to 'vesak_sinhala.mp4':
  Metadata:
    encoder         : Lavf62.12.101
  Stream #0:0: Video: h264 (avc1 / 0x31637661), yuv420p(pc, bt470bg/unknown/unknown, progressive), 842x1190 [SAR 1190:1191 DAR 842:1191], q=2-31, 25 fps, 12800 tbn
    Metadata:
      encoder         : Lavc62.28.101 libx264
    Side data:
      CPB properties: bitrate max/min/avg: 0/0/0 buffer size: 0 vbv_delay: N/A
  Stream #0:1: Audio: aac (LC) (mp4a / 0x6134706D), 48000 Hz, mono, fltp, 192 kb/s
    Metadata:
      encoder         : Lavc62.28.101 aac
frame=   58 fps=0.0 q=28.0 size=     256KiB time=00:00:02.24 bitrate= 936.4kbits/s speed=3.64x elapsed=0:00:00.61    frame=  147 fps=129 q=28.0 size=     256KiB time=00:00:05.80 bitrate= 361.6kbits/s speed=5.11x elapsed=0:00:01.13    frame=  231 fps=140 q=28.0 size=     256KiB time=00:00:09.16 bitrate= 229.0kbits/s speed=5.55x elapsed=0:00:01.65    frame=  284 fps=124 q=28.0 size=     768KiB time=00:00:11.28 bitrate= 557.8kbits/s speed=4.93x elapsed=0:00:02.28    frame=  284 fps= 98 q=28.0 size=     768KiB time=00:00:11.28 bitrate= 557.8kbits/s speed=3.91x elapsed=0:00:02.88    frame=  342 fps= 97 q=28.0 size=     768KiB time=00:00:13.60 bitrate= 462.6kbits/s speed=3.87x elapsed=0:00:03.51    frame=  444 fps=107 q=28.0 size=     768KiB time=00:00:17.68 bitrate= 355.9kbits/s speed=4.28x elapsed=0:00:04.13    frame=  528 fps=113 q=28.0 size=    1280KiB time=00:00:21.04 bitrate= 498.4kbits/s speed=4.52x elapsed=0:00:04.65    frame=  608 fps=118 q=28.0 size=    1280KiB time=00:00:24.24 bitrate= 432.6kbits/s speed=4.69x elapsed=0:00:05.17    frame=  680 fps=119 q=28.0 size=    1280KiB time=00:00:27.12 bitrate= 386.7kbits/s speed=4.75x elapsed=0:00:05.71    frame=  766 fps=121 q=28.0 size=    1536KiB time=00:00:30.56 bitrate= 411.8kbits/s speed=4.81x elapsed=0:00:06.34    frame=  854 fps=124 q=28.0 size=    1792KiB time=00:00:34.08 bitrate= 430.8kbits/s speed=4.95x elapsed=0:00:06.88    frame=  944 fps=127 q=28.0 size=    1792KiB time=00:00:37.68 bitrate= 389.6kbits/s speed=5.07x elapsed=0:00:07.43    frame= 1025 fps=129 q=28.0 size=    2048KiB time=00:00:40.92 bitrate= 410.0kbits/s speed=5.16x elapsed=0:00:07.93    frame= 1122 fps=132 q=28.0 size=    2304KiB time=00:00:44.80 bitrate= 421.3kbits/s speed=5.26x elapsed=0:00:08.52    frame= 1210 fps=134 q=28.0 size=    2304KiB time=00:00:48.32 bitrate= 390.6kbits/s speed=5.34x elapsed=0:00:09.05    frame= 1286 fps=134 q=28.0 size=    2560KiB time=00:00:51.36 bitrate= 408.3kbits/s speed=5.37x elapsed=0:00:09.56    frame= 1390 fps=136 q=28.0 size=    2816KiB time=00:00:55.52 bitrate= 415.5kbits/s speed=5.44x elapsed=0:00:10.20    frame= 1492 fps=138 q=28.0 size=    2816KiB time=00:00:59.60 bitrate= 387.1kbits/s speed=5.51x elapsed=0:00:10.82    frame= 1580 fps=139 q=28.0 size=    3072KiB time=00:01:03.12 bitrate= 398.7kbits/s speed=5.53x elapsed=0:00:11.40    frame= 1664 fps=140 q=28.0 size=    3328KiB time=00:01:06.48 bitrate= 410.1kbits/s speed=5.58x elapsed=0:00:11.91    frame= 1750 fps=141 q=28.0 size=    3328KiB time=00:01:09.92 bitrate= 389.9kbits/s speed=5.62x elapsed=0:00:12.44    [out#0/mp4 @ 0x600001fe8480] video:2334KiB audio:1357KiB subtitle:0KiB other streams:0KiB global headers:0KiB muxing overhead: 1.476787%
frame= 1810 fps=143 q=-1.0 Lsize=    3745KiB time=00:01:10.56 bitrate= 434.8kbits/s speed=5.57x elapsed=0:00:12.67    
[libx264 @ 0x1546104c0] frame I:8     Avg QP:17.66  size:278149
[libx264 @ 0x1546104c0] frame P:456   Avg QP:17.35  size:   173
[libx264 @ 0x1546104c0] frame B:1346  Avg QP:32.31  size:    63
[libx264 @ 0x1546104c0] consecutive B-frames:  0.8%  0.0%  0.2% 99.0%
[libx264 @ 0x1546104c0] mb I  I16..4: 22.4% 27.3% 50.3%
[libx264 @ 0x1546104c0] mb P  I16..4:  0.0%  0.0%  0.0%  P16..4:  0.5%  0.0%  0.0%  0.0%  0.0%    skip:99.4%
[libx264 @ 0x1546104c0] mb B  I16..4:  0.0%  0.0%  0.0%  B16..8:  0.6%  0.0%  0.0%  direct: 0.0%  skip:99.4%  L0:40.2% L1:59.7% BI: 0.0%
[libx264 @ 0x1546104c0] 8x8 transform intra:27.2% inter:81.9%
[libx264 @ 0x1546104c0] coded y,uvDC,uvAC intra: 67.0% 82.3% 77.7% inter: 0.1% 0.0% 0.0%
[libx264 @ 0x1546104c0] i16 v,h,dc,p: 61% 34%  3%  3%
[libx264 @ 0x1546104c0] i8 v,h,dc,ddl,ddr,vr,hd,vl,hu: 17% 27% 23%  4%  5%  4%  7%  4% 11%
[libx264 @ 0x1546104c0] i4 v,h,dc,ddl,ddr,vr,hd,vl,hu: 20% 27% 15%  5%  7%  6%  7%  5%  8%
[libx264 @ 0x1546104c0] i8c dc,h,v,p: 35% 37% 19%  9%
[libx264 @ 0x1546104c0] Weighted P-Frames: Y:0.0% UV:0.0%
[libx264 @ 0x1546104c0] ref P L0: 92.4%  1.3%  5.3%  1.0%
[libx264 @ 0x1546104c0] ref B L0: 58.3% 41.5%  0.3%
[libx264 @ 0x1546104c0] ref B L1: 93.2%  6.8%
[libx264 @ 0x1546104c0] kb/s:263.96
[aac @ 0x154612710] Qavg: 58012.949
Creating English video...
ffmpeg version 8.1.1 Copyright (c) 2000-2026 the FFmpeg developers
  built with Apple clang version 17.0.0 (clang-1700.6.4.2)
  configuration: --prefix=/opt/homebrew/Cellar/ffmpeg/8.1.1 --enable-shared --enable-pthreads --enable-version3 --cc=clang --host-cflags= --host-ldflags= --enable-ffplay --enable-gpl --enable-libsvtav1 --enable-libopus --enable-libx264 --enable-libmp3lame --enable-libdav1d --enable-libvmaf --enable-libvpx --enable-libx265 --enable-openssl --enable-videotoolbox --enable-audiotoolbox --enable-neon
  libavutil      60. 26.101 / 60. 26.101
  libavcodec     62. 28.101 / 62. 28.101
  libavformat    62. 12.101 / 62. 12.101
  libavdevice    62.  3.101 / 62.  3.101
  libavfilter    11. 14.101 / 11. 14.101
  libswscale      9.  5.101 /  9.  5.101
  libswresample   6.  3.101 /  6.  3.101
Input #0, image2, from 'poster.jpg':
  Duration: 00:00:00.04, start: 0.000000, bitrate: 43548 kb/s
  Stream #0:0: Video: mjpeg (Progressive), yuvj420p(pc, bt470bg/unknown/unknown), 842x1191 [SAR 1:1 DAR 842:1191], 25 fps, 25 tbr, 25 tbn
[in#1/mp3 @ 0x120f04360] Estimating duration from bitrate, this may be inaccurate
Input #1, mp3, from 'english.mp3':
  Duration: 00:01:12.82, start: 0.000000, bitrate: 192 kb/s
  Stream #1:0: Audio: mp3 (mp3float), 48000 Hz, mono, fltp, 192 kb/s
Stream mapping:
  Stream #0:0 -> #0:0 (mjpeg (native) -> h264 (libx264))
  Stream #1:0 -> #0:1 (mp3 (mp3float) -> aac (native))
Press [q] to stop, [?] for help
[swscaler @ 0x1181a8000] deprecated pixel format used, make sure you did set range correctly
[libx264 @ 0x120f0d6d0] using SAR=1190/1191
[libx264 @ 0x120f0d6d0] using cpu capabilities: ARMv8 NEON DotProd
[libx264 @ 0x120f0d6d0] profile High, level 3.2, 4:2:0, 8-bit
[libx264 @ 0x120f0d6d0] 264 - core 165 r3222 b35605a - H.264/MPEG-4 AVC codec - Copyleft 2003-2025 - http://www.videolan.org/x264.html - options: cabac=1 ref=3 deblock=1:-3:-3 analyse=0x3:0x113 me=hex subme=7 psy=1 psy_rd=2.00:0.70 mixed_ref=1 me_range=16 chroma_me=1 trellis=1 8x8dct=1 cqm=0 deadzone=21,11 fast_pskip=1 chroma_qp_offset=-4 threads=4 lookahead_threads=1 sliced_threads=0 nr=0 decimate=1 interlaced=0 bluray_compat=0 constrained_intra=0 bframes=3 b_pyramid=2 b_adapt=1 b_bias=0 direct=1 weightb=1 open_gop=0 weightp=2 keyint=250 keyint_min=25 scenecut=40 intra_refresh=0 rc_lookahead=40 rc=crf mbtree=1 crf=23.0 qcomp=0.60 qpmin=0 qpmax=69 qpstep=4 ip_ratio=1.40 aq=1:1.20
Output #0, mp4, to 'vesak_english.mp4':
  Metadata:
    encoder         : Lavf62.12.101
  Stream #0:0: Video: h264 (avc1 / 0x31637661), yuv420p(pc, bt470bg/unknown/unknown, progressive), 842x1190 [SAR 1190:1191 DAR 842:1191], q=2-31, 25 fps, 12800 tbn
    Metadata:
      encoder         : Lavc62.28.101 libx264
    Side data:
      CPB properties: bitrate max/min/avg: 0/0/0 buffer size: 0 vbv_delay: N/A
  Stream #0:1: Audio: aac (LC) (mp4a / 0x6134706D), 48000 Hz, mono, fltp, 192 kb/s
    Metadata:
      encoder         : Lavc62.28.101 aac
frame=   51 fps=0.0 q=28.0 size=     256KiB time=00:00:01.96 bitrate=1070.2kbits/s speed=3.25x elapsed=0:00:00.60    frame=  136 fps=123 q=28.0 size=     256KiB time=00:00:05.36 bitrate= 391.3kbits/s speed=4.85x elapsed=0:00:01.10    frame=  242 fps=140 q=28.0 size=     256KiB time=00:00:09.60 bitrate= 218.5kbits/s speed=5.57x elapsed=0:00:01.72    frame=  313 fps=133 q=28.0 size=     768KiB time=00:00:12.44 bitrate= 505.8kbits/s speed=5.28x elapsed=0:00:02.35    frame=  313 fps=107 q=28.0 size=     768KiB time=00:00:12.44 bitrate= 505.8kbits/s speed=4.26x elapsed=0:00:02.92    frame=  327 fps= 95 q=28.0 size=     768KiB time=00:00:13.00 bitrate= 484.0kbits/s speed= 3.8x elapsed=0:00:03.42    frame=  401 fps=101 q=28.0 size=     768KiB time=00:00:15.96 bitrate= 394.2kbits/s speed=4.02x elapsed=0:00:03.96    frame=  467 fps=104 q=28.0 size=     768KiB time=00:00:18.60 bitrate= 338.3kbits/s speed=4.13x elapsed=0:00:04.50    frame=  547 fps=108 q=28.0 size=    1280KiB time=00:00:21.80 bitrate= 481.0kbits/s speed=4.31x elapsed=0:00:05.06    frame=  649 fps=115 q=28.0 size=    1280KiB time=00:00:25.88 bitrate= 405.2kbits/s speed=4.57x elapsed=0:00:05.66    frame=  750 fps=119 q=28.0 size=    1280KiB time=00:00:29.92 bitrate= 350.5kbits/s speed=4.76x elapsed=0:00:06.28    frame=  857 fps=123 q=28.0 size=    1792KiB time=00:00:34.20 bitrate= 429.3kbits/s speed=4.93x elapsed=0:00:06.93    frame=  939 fps=126 q=28.0 size=    1792KiB time=00:00:37.48 bitrate= 391.7kbits/s speed=5.03x elapsed=0:00:07.44    frame= 1026 fps=128 q=28.0 size=    2304KiB time=00:00:40.96 bitrate= 460.8kbits/s speed=5.12x elapsed=0:00:08.00    frame= 1121 fps=131 q=28.0 size=    2304KiB time=00:00:44.76 bitrate= 421.7kbits/s speed=5.23x elapsed=0:00:08.55    frame= 1207 fps=133 q=28.0 size=    2304KiB time=00:00:48.20 bitrate= 391.6kbits/s speed= 5.3x elapsed=0:00:09.08    frame= 1299 fps=135 q=28.0 size=    2816KiB time=00:00:51.88 bitrate= 444.7kbits/s speed=5.38x elapsed=0:00:09.63    frame= 1379 fps=136 q=28.0 size=    2816KiB time=00:00:55.08 bitrate= 418.8kbits/s speed=5.43x elapsed=0:00:10.13    frame= 1473 fps=138 q=28.0 size=    2816KiB time=00:00:58.84 bitrate= 392.1kbits/s speed=5.49x elapsed=0:00:10.71    frame= 1553 fps=138 q=28.0 size=    3328KiB time=00:01:02.04 bitrate= 439.4kbits/s speed=5.53x elapsed=0:00:11.21    frame= 1653 fps=140 q=28.0 size=    3328KiB time=00:01:06.04 bitrate= 412.8kbits/s speed=5.59x elapsed=0:00:11.80    frame= 1737 fps=141 q=28.0 size=    3328KiB time=00:01:09.40 bitrate= 392.8kbits/s speed=5.64x elapsed=0:00:12.31    frame= 1844 fps=143 q=28.0 size=    3840KiB time=N/A bitrate=N/A speed=N/A elapsed=0:00:12.91    [out#0/mp4 @ 0x600003808180] video:2337KiB audio:1600KiB subtitle:0KiB other streams:0KiB global headers:0KiB muxing overhead: 1.426616%
frame= 1863 fps=144 q=-1.0 Lsize=    3993KiB time=00:01:12.81 bitrate= 449.2kbits/s speed=5.62x elapsed=0:00:12.96    
[libx264 @ 0x120f0d6d0] frame I:8     Avg QP:17.66  size:278149
[libx264 @ 0x120f0d6d0] frame P:469   Avg QP:17.34  size:   171
[libx264 @ 0x120f0d6d0] frame B:1386  Avg QP:32.37  size:    63
[libx264 @ 0x120f0d6d0] consecutive B-frames:  0.8%  0.0%  0.0% 99.2%
[libx264 @ 0x120f0d6d0] mb I  I16..4: 22.4% 27.3% 50.3%
[libx264 @ 0x120f0d6d0] mb P  I16..4:  0.0%  0.0%  0.0%  P16..4:  0.5%  0.0%  0.0%  0.0%  0.0%    skip:99.4%
[libx264 @ 0x120f0d6d0] mb B  I16..4:  0.0%  0.0%  0.0%  B16..8:  0.6%  0.0%  0.0%  direct: 0.0%  skip:99.4%  L0:40.3% L1:59.7% BI: 0.0%
[libx264 @ 0x120f0d6d0] 8x8 transform intra:27.2% inter:82.1%
[libx264 @ 0x120f0d6d0] coded y,uvDC,uvAC intra: 67.0% 82.3% 77.7% inter: 0.1% 0.0% 0.0%
[libx264 @ 0x120f0d6d0] i16 v,h,dc,p: 61% 34%  3%  3%
[libx264 @ 0x120f0d6d0] i8 v,h,dc,ddl,ddr,vr,hd,vl,hu: 17% 27% 23%  4%  5%  4%  7%  4% 11%
[libx264 @ 0x120f0d6d0] i4 v,h,dc,ddl,ddr,vr,hd,vl,hu: 20% 27% 15%  5%  7%  6%  7%  5%  8%
[libx264 @ 0x120f0d6d0] i8c dc,h,v,p: 35% 37% 19%  9%
[libx264 @ 0x120f0d6d0] Weighted P-Frames: Y:0.0% UV:0.0%
[libx264 @ 0x120f0d6d0] ref P L0: 92.4%  1.2%  5.4%  1.0%
[libx264 @ 0x120f0d6d0] ref B L0: 58.6% 41.1%  0.3%
[libx264 @ 0x120f0d6d0] ref B L1: 93.4%  6.6%
[libx264 @ 0x120f0d6d0] kb/s:256.83
[aac @ 0x120e08fe0] Qavg: 53292.941

Done!
  vesak_sinhala.mp4
  vesak_english.mp4
